<?xml version="1.0" encoding="UTF-8" standalone="no"?>
<!-- Created with Inkscape (http://www.inkscape.org/) -->

<svg
   xmlns:dc="http://purl.org/dc/elements/1.1/"
   xmlns:cc="http://creativecommons.org/ns#"
   xmlns:rdf="http://www.w3.org/1999/02/22-rdf-syntax-ns#"
   xmlns:svg="http://www.w3.org/2000/svg"
   xmlns="http://www.w3.org/2000/svg"
   xmlns:sodipodi="http://sodipodi.sourceforge.net/DTD/sodipodi-0.dtd"
   xmlns:inkscape="http://www.inkscape.org/namespaces/inkscape"
   width="2026.9213"
   height="2027.1792"
   id="svg2"
   version="1.1"
   inkscape:version="0.48.2 r9819"
   sodipodi:docname="reflow.png">
  <defs
     id="defs4" />
  <sodipodi:namedview
     id="base"
     pagecolor="#ffffff"
     bordercolor="#666666"
     borderopacity="1.0"
     inkscape:pageopacity="0.0"
     inkscape:pageshadow="2"
     inkscape:zoom="0.15004828"
     inkscape:cx="1103.8902"
     inkscape:cy="969.86617"
     inkscape:document-units="px"
     inkscape:current-layer="g3893"
     showgrid="false"
     showguides="true"
     inkscape:guide-bbox="true"
     inkscape:window-width="813"
     inkscape:window-height="917"
     inkscape:window-x="111"
     inkscape:window-y="13"
     inkscape:window-maximized="0"
     fit-margin-top="0"
     fit-margin-left="0"
     fit-margin-right="0"
     fit-margin-bottom="0" />
  <metadata
     id="metadata7">
    <rdf:RDF>
      <cc:Work
         rdf:about="">
        <dc:format>image/svg+xml</dc:format>
        <dc:type
           rdf:resource="http://purl.org/dc/dcmitype/StillImage" />
        <dc:title></dc:title>
      </cc:Work>
    </rdf:RDF>
  </metadata>
  <g
     inkscape:label="Layer 1"
     inkscape:groupmode="layer"
     id="layer1"
     sodipodi:insensitive="true"
     style="display:none"
     transform="translate(644.38814,457.46934)" />
  <g
     id="g3767"
     inkscape:groupmode="layer"
     inkscape:label="Layer 1 copy#1"
     sodipodi:insensitive="true"
     style="display:none"
     transform="translate(644.38814,457.46934)" />
  <g
     id="g3763"
     inkscape:groupmode="layer"
     inkscape:label="Layer 1 copy"
     sodipodi:insensitive="true"
     style="display:none"
     transform="translate(644.38814,457.46934)" />
  <g
     id="g3759"
     inkscape:groupmode="layer"
     inkscape:label="red"
     style="display:inline"
     transform="translate(644.38814,457.46934)" />
  <g
     inkscape:label="red copy"
     inkscape:groupmode="layer"
     id="g3893"
     style="display:inline"
     transform="translate(644.38814,457.46934)">
    <g
       id="g4013">
      <rect
         transform="matrix(0.92387953,-0.38268343,0.38268343,0.92387953,0,0)"
         ry="146.11211"
         y="339.81412"
         x="-884.05457"
         height="635.00873"
         width="635.00873"
         id="rect3013"
         style="fill:#5f57ff;fill-opacity:1;stroke:none;display:inline" />
      <rect
         transform="matrix(-0.38268343,0.92387953,-0.92387953,-0.38268343,0,0)"
         style="fill:#1fcedf;fill-opacity:1;stroke:none;display:inline"
         id="rect3791"
         width="635.00873"
         height="635.00873"
         x="751.35333"
         y="-871.30139"
         ry="146.11211" />
      <rect
         transform="matrix(0.92387953,-0.38268343,0.38268343,0.92387953,0,0)"
         style="fill:#1fff63;fill-opacity:1;stroke:none;display:inline"
         id="rect3799"
         width="635.00873"
         height="635.00873"
         x="-188.00117"
         y="1034.5243"
         ry="146.11211" />
      <rect
         transform="matrix(-0.92387953,-0.38268343,0.38268343,-0.92387953,0,0)"
         style="fill:#cfff1f;fill-opacity:1;stroke:none;display:inline"
         id="rect3787"
         width="635.00873"
         height="635.00873"
         x="-1567.608"
         y="-690.05511"
         ry="146.11211" />
      <rect
         transform="matrix(0.92387953,-0.38268343,0.38268343,0.92387953,0,0)"
         ry="146.11211"
         y="338.47501"
         x="506.0094"
         height="635.00873"
         width="635.00873"
         id="rect3789"
         style="fill:#ffc31f;fill-opacity:1;stroke:none;display:inline" />
      <rect
         transform="matrix(0.92387953,0.38268343,-0.38268343,0.92387953,0,0)"
         ry="146.11211"
         y="-641.26434"
         x="236.29166"
         height="635.00873"
         width="635.00873"
         id="rect3797"
         style="fill:#ff7f3f;fill-opacity:1;stroke:none;display:inline" />
      <rect
         transform="matrix(0.92387953,-0.38268343,0.38268343,0.92387953,0,0)"
         ry="146.11211"
         y="-359.48056"
         x="-190.68562"
         height="635.00873"
         width="635.00873"
         id="rect3801"
         style="fill:#ff3f5b;fill-opacity:1;stroke:none;display:inline" />
      <rect
         transform="matrix(-0.38268343,0.92387953,-0.92387953,-0.38268343,0,0)"
         style="fill:#c337c3;fill-opacity:1;stroke:none;display:inline"
         id="rect3803"
         width="635.00873"
         height="635.00873"
         x="55.044724"
         y="-174.99356"
         ry="146.11211" />
      <rect
         style="fill:#ff3f5b;fill-opacity:1;stroke:none"
         id="rect3909"
         width="635.00873"
         height="635.00873"
         x="-190.68562"
         y="-359.48056"
         ry="146.11211"
         transform="matrix(0.92387953,-0.38268343,0.38268343,0.92387953,0,0)" />
      <rect
         style="fill:#ff7f3f;fill-opacity:1;stroke:none"
         id="rect3907"
         width="635.00873"
         height="635.00873"
         x="236.29166"
         y="-641.26434"
         ry="146.11211"
         transform="matrix(0.92387953,0.38268343,-0.38268343,0.92387953,0,0)" />
      <rect
         style="fill:#ffc31f;fill-opacity:1;stroke:none"
         id="rect3905"
         width="635.00873"
         height="635.00873"
         x="506.0094"
         y="338.47501"
         ry="146.11211"
         transform="matrix(0.92387953,-0.38268343,0.38268343,0.92387953,0,0)" />
      <rect
         ry="146.11211"
         y="-690.05511"
         x="-1567.608"
         height="635.00873"
         width="635.00873"
         id="rect3903"
         style="fill:#cfff1f;fill-opacity:1;stroke:none"
         transform="matrix(-0.92387953,-0.38268343,0.38268343,-0.92387953,0,0)" />
      <rect
         ry="146.11211"
         y="1034.5243"
         x="-188.00117"
         height="635.00873"
         width="635.00873"
         id="rect3901"
         style="fill:#1fff63;fill-opacity:1;stroke:none"
         transform="matrix(0.92387953,-0.38268343,0.38268343,0.92387953,0,0)" />
      <rect
         ry="146.11211"
         y="-871.30139"
         x="751.35333"
         height="635.00873"
         width="635.00873"
         id="rect3899"
         style="fill:#1fcedf;fill-opacity:1;stroke:none"
         transform="matrix(-0.38268343,0.92387953,-0.92387953,-0.38268343,0,0)" />
      <rect
         style="fill:#5f57ff;fill-opacity:1;stroke:none"
         id="rect3897"
         width="635.00873"
         height="635.00873"
         x="-884.05457"
         y="339.81412"
         ry="146.11211"
         transform="matrix(0.92387953,-0.38268343,0.38268343,0.92387953,0,0)" />
      <path
         sodipodi:nodetypes="csssscc"
         inkscape:connector-curvature="0"
         id="rect3895"
         d="m 18.87203,411.7191 -65.35639,157.7843 c -30.9767,74.7845 -116.1202,110.0521 -190.9047,79.0753 l -316.6916,-131.1779 c -74.7844,-30.9768 -110.052,-116.1203 -79.0753,-190.9047 l 65.3564,-157.7843 z"
         style="fill:#c337c3;fill-opacity:1;stroke:none" />
    </g>
  </g>
</svg>
